<?xml version="1.0" standalone="no"?>
<!DOCTYPE svg PUBLIC "-//W3C//DTD SVG 20010904//EN"
 "http://www.w3.org/TR/2001/REC-SVG-20010904/DTD/svg10.dtd">
<svg version="1.0" xmlns="http://www.w3.org/2000/svg"
 width="500.000000pt" height="500.000000pt" viewBox="0 0 500.000000 500.000000"
 preserveAspectRatio="xMidYMid meet">
<metadata>
Created by potrace 1.14, written by Peter Selinger 2001-2017
</metadata>
<g transform="translate(0.000000,500.000000) scale(0.100000,-0.100000)"
fill="#000000" stroke="none">
<path d="M2290 4690 c-199 -25 -325 -52 -475 -102 -220 -73 -443 -190 -635
-331 -122 -90 -346 -315 -436 -437 -125 -169 -187 -278 -269 -470 -91 -213
-136 -388 -163 -630 -14 -129 -7 -455 13 -550 2 -13 7 -42 11 -65 26 -180 124
-461 220 -636 24 -43 44 -84 44 -89 0 -6 4 -10 10 -10 5 0 9 -3 8 -7 -2 -7 29
-60 42 -73 3 -3 11 -17 19 -32 8 -16 18 -28 23 -28 4 0 8 -4 8 -10 0 -5 6 -18
14 -27 65 -81 144 -175 176 -208 78 -83 260 -246 284 -254 6 -2 13 -7 16 -11
8 -11 150 -103 215 -140 215 -122 478 -217 705 -255 14 -2 34 -6 46 -9 126
-27 531 -28 660 -2 12 2 39 7 60 10 163 26 393 100 564 182 98 47 304 165 320
183 3 3 41 33 85 65 148 110 380 359 481 516 16 25 31 47 34 50 4 4 18 28 64
115 6 11 13 22 16 25 10 9 89 185 116 255 100 267 139 488 139 785 0 196 -8
272 -51 485 -32 162 -142 441 -241 616 -32 55 -153 230 -198 285 -53 66 -270
282 -320 319 -22 17 -53 42 -70 57 -16 16 -35 28 -41 28 -6 0 -19 9 -29 20
-10 11 -24 20 -32 20 -7 0 -13 5 -13 10 0 6 -6 10 -13 10 -7 0 -23 9 -35 20
-12 12 -22 18 -22 14 0 -4 -8 0 -17 9 -10 8 -67 40 -128 70 -210 106 -451 183
-662 212 -23 3 -57 8 -75 11 -52 9 -407 11 -468 4z m390 -154 c42 -4 85 -8 95
-10 11 -2 43 -7 70 -10 104 -15 333 -81 440 -126 17 -8 32 -14 35 -15 3 0 43
-20 90 -43 284 -139 479 -299 720 -588 52 -62 135 -195 200 -319 60 -116 146
-347 165 -446 2 -11 6 -28 9 -37 3 -9 8 -33 11 -52 3 -19 10 -60 15 -90 16
-97 21 -162 21 -300 0 -148 -5 -212 -26 -335 -8 -44 -17 -93 -19 -110 -26
-146 -139 -437 -232 -594 -113 -192 -306 -417 -479 -557 -61 -50 -198 -144
-245 -170 -19 -10 -37 -21 -40 -24 -12 -14 -203 -101 -295 -135 -318 -118
-698 -158 -1015 -105 -30 5 -71 12 -90 15 -79 13 -288 74 -349 102 -18 8 -39
16 -45 17 -15 3 -190 90 -245 122 -283 165 -554 433 -723 715 -50 84 -142 270
-154 314 -4 16 -26 78 -35 100 -9 21 -37 120 -43 151 -3 11 -9 40 -15 67 -6
26 -14 64 -17 85 -3 20 -7 48 -10 62 -21 118 -20 426 1 560 12 76 18 104 40
195 24 102 52 192 78 255 25 61 30 75 31 80 1 3 20 44 44 92 105 217 260 423
448 598 105 98 293 237 347 256 9 3 17 9 17 13 0 4 16 13 35 21 19 8 35 17 35
22 0 4 5 8 12 8 6 0 41 14 77 31 93 44 100 46 161 68 101 36 224 70 305 85
117 22 140 25 250 32 55 4 101 7 102 8 4 3 155 -2 223 -8z"/>
<path d="M2477 3928 c-9 -5 -17 -6 -17 -2 0 21 -61 -54 -65 -80 -3 -17 -7
-293 -8 -613 -2 -575 -2 -583 -22 -584 -11 0 -235 -1 -497 -1 l-478 0 -38 -28
c-68 -49 -67 -32 -67 -665 l0 -570 23 -33 c49 -68 35 -66 567 -69 264 -1 761
-3 1103 -3 593 -1 626 0 660 18 21 11 47 36 59 58 22 39 22 44 23 499 1 253 2
505 1 560 0 106 -9 146 -43 182 -41 44 -67 46 -573 48 l-480 1 0 604 c0 558
-2 607 -18 631 -28 42 -96 67 -130 47z"/>
<path d="M1288 3632 c-48 -29 -61 -91 -33 -159 19 -45 19 -62 -1 -102 -35 -71
3 -116 170 -201 l103 -51 34 19 c40 22 104 44 139 48 14 1 28 2 31 3 4 1 7 11
7 24 0 12 16 63 35 114 43 110 49 143 31 167 -12 17 -34 19 -83 5 -9 -2 -28
17 -49 49 -19 29 -45 55 -57 58 -13 3 -43 -3 -68 -15 -59 -27 -66 -27 -114 8
-63 46 -108 56 -145 33z"/>
<path d="M3809 3614 c-14 -7 -34 -26 -44 -41 -10 -15 -22 -32 -27 -38 -5 -5
-35 -46 -67 -90 -96 -131 -152 -176 -268 -216 -93 -32 -176 -95 -267 -202 -64
-75 -195 -260 -190 -268 2 -3 147 -6 322 -5 346 1 326 -2 366 60 32 51 43 108
50 261 5 103 21 140 126 282 25 33 54 73 65 89 11 15 25 32 31 38 6 6 16 22
23 34 16 30 -2 59 -56 88 -34 20 -41 20 -64 8z"/>
<path d="M1013 3440 c-28 -11 -63 -66 -63 -97 0 -14 -6 -23 -16 -23 -26 0 -70
-31 -88 -60 -28 -49 -16 -110 32 -153 19 -17 19 -20 4 -46 -13 -24 -14 -33 -3
-58 24 -59 65 -65 206 -34 110 24 259 22 348 -5 20 -6 41 13 45 42 2 18 -8 25
-75 48 -76 26 -163 65 -173 77 -3 3 -12 8 -22 12 -9 3 -30 27 -48 52 -34 50
-47 113 -29 146 8 15 5 29 -13 62 -19 33 -29 42 -53 44 -17 1 -40 -2 -52 -7z"/>
<path d="M3104 3381 c-57 -26 -102 -32 -162 -22 -45 7 -60 5 -95 -13 -22 -11
-44 -28 -47 -36 -4 -8 -11 -24 -17 -35 -5 -11 -8 -58 -6 -105 6 -173 4 -286
-6 -330 -16 -68 -14 -75 18 -78 22 -2 33 5 46 25 26 40 210 287 242 326 54 63
154 157 183 172 29 15 30 17 16 43 -34 66 -99 86 -172 53z"/>
<path d="M2077 3274 c-1 -1 -18 -5 -37 -8 -52 -8 -128 -44 -163 -77 -16 -16
-28 -31 -25 -34 2 -3 20 -7 39 -9 60 -9 78 -14 139 -42 43 -19 63 -24 72 -16
19 15 99 41 92 30 -4 -7 0 -7 12 0 11 5 27 8 37 7 10 -2 17 3 18 13 7 100 4
107 -53 123 -37 9 -125 19 -131 13z"/>
<path d="M1674 3055 c-78 -35 -132 -123 -128 -210 3 -82 -15 -74 164 -77 l159
-3 12 50 c14 60 42 117 80 166 16 20 29 39 29 42 0 2 -23 14 -51 26 -76 33
-198 35 -265 6z"/>
<path d="M3823 3039 c-41 -12 -42 -14 -49 -91 -5 -54 -23 -122 -48 -179 -5
-12 0 -18 23 -22 19 -4 53 -28 86 -62 31 -30 64 -55 76 -55 24 0 148 124 158
159 5 18 -1 41 -21 80 -17 34 -28 70 -28 96 0 59 -24 78 -103 82 -34 1 -76 -2
-94 -8z"/>
<path d="M2160 3015 c-79 -25 -153 -119 -166 -212 l-5 -39 133 2 c73 1 135 2
138 3 3 0 5 58 5 129 l-1 127 -29 2 c-17 1 -50 -4 -75 -12z"/>
<path d="M1090 2853 c-66 -17 -131 -53 -160 -90 -105 -134 -34 -307 114 -279
38 7 78 47 96 96 45 124 122 175 275 184 15 1 20 9 20 38 1 42 3 41 -93 58
-79 14 -182 11 -252 -7z"/>
</g>
</svg>
